<svg width="40" height="40" viewBox="0 0 40 40" fill="none" xmlns="http://www.w3.org/2000/svg">
<path d="M20.0065 0C11.6567 0 9.21471 0.00861611 8.74003 0.0480041C7.02651 0.190478 5.96025 0.460347 4.79862 1.03886C3.9034 1.48351 3.19738 1.99894 2.50059 2.72146C1.2316 4.03911 0.462511 5.66017 0.184102 7.5871C0.048743 8.52257 0.00936576 8.71335 0.00136726 13.4916C-0.00170908 15.0844 0.00136726 17.1805 0.00136726 19.9922C0.00136726 28.3375 0.0105963 30.7777 0.0505888 31.2516C0.189024 32.9194 0.450514 33.9687 1.00426 35.1165C2.06252 37.3136 4.08368 38.963 6.46477 39.5784C7.28923 39.7908 8.19983 39.9077 9.36884 39.9631C9.86413 39.9846 14.9124 40 19.9638 40C25.0151 40 30.0665 39.9938 30.5495 39.9692C31.9031 39.9055 32.6891 39.8 33.5581 39.5753C34.7388 39.2725 35.8391 38.7155 36.7822 37.9432C37.7254 37.171 38.4886 36.2021 39.0187 35.1042C39.5616 33.9841 39.837 32.8948 39.9616 31.314C39.9886 30.9694 40 25.4745 40 19.9869C40 14.4985 39.9877 9.01369 39.9606 8.66904C39.8345 7.06275 39.5592 5.98266 38.9987 4.84103C38.5387 3.90648 38.0281 3.20858 37.2867 2.49498C35.9638 1.23087 34.3457 0.461578 32.4171 0.1834C31.4828 0.0483118 31.2967 0.0083084 26.5161 0H20.0065Z" fill="url(#paint0_radial_301_17)"/>
<path d="M20.0065 0C11.6567 0 9.21471 0.00861611 8.74003 0.0480041C7.02651 0.190478 5.96025 0.460347 4.79862 1.03886C3.9034 1.48351 3.19738 1.99894 2.50059 2.72146C1.2316 4.03911 0.462511 5.66017 0.184102 7.5871C0.048743 8.52257 0.00936576 8.71335 0.00136726 13.4916C-0.00170908 15.0844 0.00136726 17.1805 0.00136726 19.9922C0.00136726 28.3375 0.0105963 30.7777 0.0505888 31.2516C0.189024 32.9194 0.450514 33.9687 1.00426 35.1165C2.06252 37.3136 4.08368 38.963 6.46477 39.5784C7.28923 39.7908 8.19983 39.9077 9.36884 39.9631C9.86413 39.9846 14.9124 40 19.9638 40C25.0151 40 30.0665 39.9938 30.5495 39.9692C31.9031 39.9055 32.6891 39.8 33.5581 39.5753C34.7388 39.2725 35.8391 38.7155 36.7822 37.9432C37.7254 37.171 38.4886 36.2021 39.0187 35.1042C39.5616 33.9841 39.837 32.8948 39.9616 31.314C39.9886 30.9694 40 25.4745 40 19.9869C40 14.4985 39.9877 9.01369 39.9606 8.66904C39.8345 7.06275 39.5592 5.98266 38.9987 4.84103C38.5387 3.90648 38.0281 3.20858 37.2867 2.49498C35.9638 1.23087 34.3457 0.461578 32.4171 0.1834C31.4828 0.0483118 31.2967 0.0083084 26.5161 0H20.0065Z" fill="url(#paint1_radial_301_17)"/>
<path d="M19.9973 5.23123C15.987 5.23123 15.4837 5.24877 13.9086 5.32047C12.3366 5.39248 11.2636 5.64142 10.3247 6.00668C9.35345 6.38394 8.52961 6.8886 7.70884 7.7099C6.88745 8.5309 6.38293 9.35496 6.00454 10.3261C5.63846 11.2656 5.38927 12.3392 5.31852 13.911C5.24838 15.4866 5.22992 15.9903 5.22992 20.0017C5.22992 24.0131 5.24776 24.515 5.31913 26.0905C5.39143 27.663 5.6403 28.7363 6.00516 29.6755C6.38263 30.6469 6.88715 31.471 7.70822 32.292C8.52868 33.1136 9.35253 33.6195 10.3231 33.9967C11.2626 34.362 12.336 34.6109 13.9077 34.683C15.4828 34.7547 15.9857 34.7722 19.9958 34.7722C24.0064 34.7722 24.5081 34.7547 26.0832 34.683C27.6552 34.6109 28.7295 34.362 29.669 33.9967C30.6399 33.6195 31.4625 33.1136 32.283 32.292C33.1044 31.471 33.6089 30.6469 33.9873 29.6758C34.3503 28.7363 34.5995 27.6627 34.6733 26.0908C34.7441 24.5153 34.7625 24.0131 34.7625 20.0017C34.7625 15.9903 34.7441 15.4869 34.6733 13.9113C34.5995 12.3389 34.3503 11.2656 33.9873 10.3264C33.6089 9.35496 33.1044 8.5309 32.283 7.7099C31.4616 6.88829 30.6402 6.38364 29.6681 6.00668C28.7267 5.64142 27.6531 5.39248 26.0811 5.32047C24.506 5.24877 24.0045 5.23123 19.993 5.23123H19.9973ZM18.6726 7.89299C19.0658 7.89238 19.5045 7.89299 19.9973 7.89299C23.9399 7.89299 24.4072 7.90715 25.9642 7.97793C27.4039 8.04378 28.1853 8.28441 28.7058 8.48658C29.3949 8.7543 29.8862 9.07433 30.4027 9.59129C30.9196 10.1083 31.2395 10.6006 31.5077 11.2899C31.7099 11.8099 31.9507 12.5915 32.0163 14.0317C32.087 15.5887 32.1024 16.0565 32.1024 19.9983C32.1024 23.9402 32.087 24.4079 32.0163 25.965C31.9504 27.4051 31.7099 28.1867 31.5077 28.7068C31.2401 29.396 30.9196 29.8869 30.4027 30.4035C29.8859 30.9205 29.3952 31.2405 28.7058 31.5082C28.1859 31.7113 27.4039 31.9513 25.9642 32.0172C24.4075 32.088 23.9399 32.1033 19.9973 32.1033C16.0543 32.1033 15.587 32.088 14.0304 32.0172C12.5907 31.9507 11.8093 31.7101 11.2885 31.5079C10.5994 31.2402 10.1072 30.9202 9.59033 30.4032C9.0735 29.8862 8.75356 29.3951 8.48531 28.7055C8.28319 28.1855 8.04231 27.4039 7.97679 25.9638C7.90603 24.4067 7.89188 23.939 7.89188 19.9946C7.89188 16.0503 7.90603 15.585 7.97679 14.028C8.04262 12.5879 8.28319 11.8062 8.48531 11.2856C8.75295 10.5963 9.0735 10.104 9.59033 9.58698C10.1072 9.07002 10.5994 8.74999 11.2885 8.48166C11.809 8.27857 12.5907 8.03855 14.0304 7.97239C15.3926 7.91084 15.9205 7.89238 18.6726 7.8893V7.89299ZM27.8795 10.3455C27.529 10.3455 27.1864 10.4495 26.895 10.6443C26.6036 10.8391 26.3765 11.1159 26.2424 11.4398C26.1083 11.7637 26.0732 12.1201 26.1416 12.464C26.21 12.8078 26.3789 13.1236 26.6267 13.3715C26.8746 13.6194 27.1904 13.7881 27.5342 13.8564C27.878 13.9248 28.2343 13.8896 28.558 13.7553C28.8818 13.6211 29.1585 13.3938 29.3531 13.1022C29.5478 12.8107 29.6516 12.4679 29.6515 12.1174C29.6515 11.1388 28.8578 10.3449 27.8795 10.3449V10.3455ZM19.9973 12.4165C15.8095 12.4165 12.4141 15.8127 12.4141 20.0017C12.4141 24.1907 15.8095 27.5854 19.9973 27.5854C24.1851 27.5854 27.5796 24.1907 27.5796 20.0017C27.5796 15.8127 24.1848 12.4165 19.997 12.4165H19.9973ZM19.9973 15.0782C22.7156 15.0782 24.9194 17.2824 24.9194 20.0017C24.9194 22.7207 22.7156 24.9252 19.9973 24.9252C17.2787 24.9252 15.0751 22.7207 15.0751 20.0017C15.0751 17.2824 17.2787 15.0782 19.9973 15.0782V15.0782Z" fill="white"/>
<defs>
<radialGradient id="paint0_radial_301_17" cx="0" cy="0" r="1" gradientUnits="userSpaceOnUse" gradientTransform="translate(10.6251 43.0808) rotate(-90) scale(39.643 36.8711)">
<stop stop-color="#FFDD55"/>
<stop offset="0.1" stop-color="#FFDD55"/>
<stop offset="0.5" stop-color="#FF543E"/>
<stop offset="1" stop-color="#C837AB"/>
</radialGradient>
<radialGradient id="paint1_radial_301_17" cx="0" cy="0" r="1" gradientUnits="userSpaceOnUse" gradientTransform="translate(-6.70021 2.88153) rotate(78.6806) scale(17.7206 73.0449)">
<stop stop-color="#3771C8"/>
<stop offset="0.128" stop-color="#3771C8"/>
<stop offset="1" stop-color="#6600FF" stop-opacity="0"/>
</radialGradient>
</defs>
</svg>
